<?xml version="1.0" encoding="UTF-8"?>
<svg version="1.1" xmlns="http://www.w3.org/2000/svg" width="200" height="200">
<path d="M0 0 C66 0 132 0 200 0 C200 66 200 132 200 200 C134 200 68 200 0 200 C0 134 0 68 0 0 Z " fill="#88E2A9" transform="translate(0,0)"/>
<path d="M0 0 C21.78 0 43.56 0 66 0 C66 49.17 66 98.34 66 149 C62 147 62 147 59 145 C56.21080116 144.95723545 54.59848389 145.4865487 52.47412109 147.30908203 C50.8169041 149.01319659 49.24483338 150.76674134 47.6875 152.5625 C47.13771484 153.17802734 46.58792969 153.79355469 46.02148438 154.42773438 C44.67082478 155.9428221 43.33401886 157.47023994 42 159 C41.71382812 158.38640625 41.42765625 157.7728125 41.1328125 157.140625 C39.53201333 154.11566657 37.92696604 152.7816315 35 151 C32.23853229 150.67210773 29.79666324 150.81039571 27 151 C26.773125 151.556875 26.54625 152.11375 26.3125 152.6875 C25.00654196 154.98847368 23.53377493 156.61792395 21.62890625 158.4375 C18.717224 161.23048057 15.91692448 164.13725245 13.0859375 167.01171875 C11 169 11 169 8 171 C6 170.875 6 170.875 4 170 C2.9739266 168.68662604 1.97272675 167.35335895 1 166 C0.01 165.67 -0.98 165.34 -2 165 C-1.01 168.3 -0.02 171.6 1 175 C-6.90547283 180.34781985 -17.03946746 179.85669043 -26.20703125 178.5390625 C-39.64726879 175.72175007 -51.38420402 170.76957059 -62 162 C-62.72832031 161.41089844 -63.45664063 160.82179687 -64.20703125 160.21484375 C-68.36705998 156.72296495 -71.96361162 152.92849535 -75.46484375 148.78125 C-77.0616396 146.86744786 -77.0616396 146.86744786 -79.3125 144.8125 C-82.47141221 141.41959429 -83 138.57353168 -83 134 C-83.66 134 -84.32 134 -85 134 C-91.35734854 121.28530293 -93.3643466 109.33973052 -93.4375 95.25 C-93.44749023 94.12609863 -93.45748047 93.00219727 -93.46777344 91.84423828 C-93.3604215 81.38969299 -91.6530607 72.03880672 -86.1953125 63.03515625 C-85.0592703 61.10091447 -84.20078773 59.20685432 -83.375 57.125 C-82.09165335 54.20830306 -81.2097559 53.11768274 -79 51 C-77.95377125 49.02379014 -76.94560065 47.0262871 -76 45 C-75.34 45 -74.68 45 -74 45 C-73.73058594 44.40703125 -73.46117188 43.8140625 -73.18359375 43.203125 C-68.05294813 33.65301237 -54.89528969 24.88343444 -45 21 C-42.2421875 20.875 -42.2421875 20.875 -40 21 C-40 23.64 -40 26.28 -40 29 C-38.35 29 -36.7 29 -35 29 C-35 26.36 -35 23.72 -35 21 C-29.26809577 20.82630593 -24.24937356 21.32760367 -18.6875 22.6875 C-17.95345947 22.86249023 -17.21941895 23.03748047 -16.46313477 23.21777344 C-10.29304119 24.76688664 -4.63373429 27.0310342 1 30 C0.01 32.97 -0.98 35.94 -2 39 C2.03378366 38.49019039 2.03378366 38.49019039 3.25 35.9375 C3.62125 34.9784375 3.62125 34.9784375 4 34 C8.40114397 34.50298788 10.71195019 36.08772731 14 39 C13.09622682 43.36883005 10.79543723 46.4785666 8.25 50.0625 C7.24044158 51.50620015 6.23134592 52.95022398 5.22265625 54.39453125 C4.6930127 55.14943848 4.16336914 55.9043457 3.61767578 56.68212891 C1.48414898 59.73913214 -0.61492849 62.81890525 -2.7121582 65.90087891 C-4.32803384 68.27280192 -5.95231446 70.63878432 -7.578125 73.00390625 C-10.00674535 76.5386939 -12.40644997 80.0916318 -14.796875 83.65234375 C-16.05161682 85.49771312 -17.30681374 87.34277315 -18.5625 89.1875 C-19.14620361 90.06760742 -19.72990723 90.94771484 -20.33129883 91.85449219 C-20.88325928 92.65918945 -21.43521973 93.46388672 -22.00390625 94.29296875 C-22.48674072 95.0099292 -22.9695752 95.72688965 -23.46704102 96.46557617 C-24.22585571 97.22511597 -24.22585571 97.22511597 -25 98 C-29.68093519 98 -30.14270066 97.36299641 -33.5 94.375 C-39.77645046 89.17239652 -47.17275452 83.74499262 -55.625 83.5 C-59.06422625 83.66699497 -59.06422625 83.66699497 -61 86 C-61.91884408 89.32708257 -61.91884408 89.32708257 -61 93 C-59.13132581 94.77259839 -57.1455687 95.94752416 -54.92578125 97.25390625 C-51.32778013 99.40117794 -47.96077149 101.80308691 -44.5625 104.25 C-43.94745605 104.68675049 -43.33241211 105.12350098 -42.69873047 105.57348633 C-40.31366259 107.27630153 -38.07604366 108.92395634 -36 111 C-36.35355436 113.26274788 -36.97544426 114.95088852 -38 117 C-40.94645992 115.68268423 -42.87836004 114.3003931 -45.0625 111.9375 C-53.9531798 102.79985687 -65.41472761 92.30105505 -78 89 C-83.07740987 89.15557222 -83.07740987 89.15557222 -87 92 C-87.8344592 95.3711163 -87.8344592 95.3711163 -87 99 C-85.29378662 100.56838556 -83.51046914 101.53335269 -81.47265625 102.63671875 C-70.98578666 108.41857892 -62.0422552 116.76268138 -53.8046875 125.3515625 C-53.05525879 126.12508057 -52.30583008 126.89859863 -51.53369141 127.69555664 C-50.02979172 129.25428098 -48.5394109 130.82618092 -47.06396484 132.41186523 C-43.041304 136.61902104 -43.041304 136.61902104 -37.80859375 138.90234375 C-33.77015744 137.60487673 -32.07026063 134.88840207 -29.8125 131.5 C-28.27242934 129.25182401 -26.70394734 127.13506654 -25 125 C-24.01 125 -23.02 125 -22 125 C-21.278125 125.94875 -20.55625 126.8975 -19.8125 127.875 C-16.79764849 131.79615657 -13.76211578 132.19286173 -9 133 C-8.731875 132.43667969 -8.46375 131.87335938 -8.1875 131.29296875 C-6.92530448 128.85576885 -5.51350774 126.60168045 -4 124.3125 C-3.484375 123.52488281 -2.96875 122.73726563 -2.4375 121.92578125 C-1 120 -1 120 1 119 C2.05352843 116.69034152 3.05719096 114.3570226 4 112 C4.66 112 5.32 112 6 112 C6.26425781 111.27167969 6.52851563 110.54335937 6.80078125 109.79296875 C8.00729929 106.98300002 9.40020016 104.78690825 11.1875 102.3125 C11.81140625 101.43980469 12.4353125 100.56710938 13.078125 99.66796875 C14.02945313 98.34732422 14.02945313 98.34732422 15 97 C19.48774466 90.6625768 23.84793202 84.25641327 28.10546875 77.76171875 C29.95631052 75.06368755 31.94735362 72.5459504 34 70 C34.85242671 68.76294173 35.68603118 67.51269522 36.5 66.25 C40.0602474 60.83223221 43.82576099 55.56352774 47.59765625 50.29199219 C53.90388371 42.15696896 53.90388371 42.15696896 57.5625 32.8125 C56.35663974 26.78319872 51.36434165 23.47569199 46.5625 20.125 C45.94487793 19.69227783 45.32725586 19.25955566 44.69091797 18.8137207 C30.91289037 9.32660474 16.50981264 3.65903232 0 1 C0 0.67 0 0.34 0 0 Z " fill="#FCFEFD" transform="translate(134,0)"/>
<path d="M0 0 C-2.78541497 2.2297041 -5.69418069 3.99294891 -8.82275391 5.7019043 C-17.75776119 10.58819858 -25.68016596 15.88205419 -32 24 C-32.7425 24.721875 -33.485 25.44375 -34.25 26.1875 C-37.4108571 29.42019476 -40.14130706 32.88148813 -42.9375 36.4296875 C-45.38301865 39.47732248 -47.94491718 42.401431 -50.5546875 45.30859375 C-52.84871699 47.99322826 -54 49.39543371 -54 53 C-53.34 53.33 -52.68 53.66 -52 54 C-52.33 55.65 -52.66 57.3 -53 59 C-54.98 58.67 -56.96 58.34 -59 58 C-59.79675015 59.85198794 -60.58714361 61.7067111 -61.375 63.5625 C-61.81585938 64.59503906 -62.25671875 65.62757812 -62.7109375 66.69140625 C-65.12587682 72.8897505 -66.39187913 78.86945815 -67.125 85.4375 C-67.21136719 86.16904297 -67.29773438 86.90058594 -67.38671875 87.65429688 C-67.59628393 89.43560094 -67.79887868 91.21772281 -68 93 C-65.36 93 -62.72 93 -60 93 C-60 94.32 -60 95.64 -60 97 C-62.70879335 98.35439668 -65.00933268 98.06501451 -68 98 C-66.46007216 110.42748784 -63.91487307 121.46833988 -59 133 C-58.2575 132.67 -57.515 132.34 -56.75 132 C-54 131 -54 131 -50 131 C-50 132.32 -50 133.64 -50 135 C-52.5 136.75 -52.5 136.75 -55 138 C-53.53846964 142.73676706 -50.72572115 145.85736101 -47.375 149.375 C-46.83810547 149.94573242 -46.30121094 150.51646484 -45.74804688 151.10449219 C-38.53782413 159.41706742 -38.53782413 159.41706742 -29 164 C-29 163.34 -29 162.68 -29 162 C-27.68 162.33 -26.36 162.66 -25 163 C-25 164.98 -25 166.96 -25 169 C-24.1646875 169.27263672 -24.1646875 169.27263672 -23.3125 169.55078125 C-22.549375 169.80214844 -21.78625 170.05351562 -21 170.3125 C-20.2575 170.55613281 -19.515 170.79976562 -18.75 171.05078125 C-11.57536022 173.52725492 -4.58370843 176.38247076 2.38085938 179.39453125 C12.50412241 183.65399503 22.24838092 185.48898566 33.1875 186.1875 C34.33025391 186.26935547 35.47300781 186.35121094 36.65039062 186.43554688 C39.43306808 186.63347791 42.21602325 186.82145365 45 187 C41.95143102 188.56992417 39.06439499 189.65814365 35.75 190.5625 C34.85796875 190.81128906 33.9659375 191.06007812 33.046875 191.31640625 C25.8045882 192.94127829 18.74954956 193.1411254 11.36132812 193.11352539 C9.80875809 193.11374443 9.80875809 193.11374443 8.224823 193.1139679 C4.8269435 193.11327504 1.42911984 193.1055121 -1.96875 193.09765625 C-4.333862 193.09578984 -6.69897439 193.09436699 -9.06408691 193.09336853 C-15.27169879 193.08956089 -21.47928706 193.07974563 -27.68688965 193.06866455 C-34.02823568 193.05841267 -40.36958556 193.05386283 -46.7109375 193.04882812 C-59.14063534 193.03812174 -71.5703157 193.02106645 -84 193 C-84.0698042 179.19491301 -84.12296493 165.38986867 -84.15543652 151.5846405 C-84.17102872 145.17289961 -84.19214823 138.76128031 -84.22631836 132.34960938 C-84.2591429 126.15095846 -84.27690136 119.95242381 -84.28463173 113.75369263 C-84.29013404 111.40005669 -84.30087751 109.04642642 -84.31719017 106.69284058 C-84.4245758 90.54296532 -84.08749122 75.05378514 -77.875 59.875 C-77.5764209 59.13056641 -77.2778418 58.38613281 -76.97021484 57.61914062 C-72.05256218 45.857021 -64.86852516 36.13227312 -56 27 C-55.45085938 26.38898437 -54.90171875 25.77796875 -54.3359375 25.1484375 C-41.43712627 11.2329712 -19.19938052 -1.30165292 0 0 Z " fill="#469790" transform="translate(84,7)"/>
<path d="M0 0 C36.63 0 73.26 0 111 0 C111 0.33 111 0.66 111 1 C110.33693848 1.13051758 109.67387695 1.26103516 108.99072266 1.39550781 C102.40053451 2.69555875 95.81474733 4.01610775 89.23144531 5.35058594 C86.46656519 5.90623577 83.69914118 6.44436638 80.9296875 6.9765625 C54.7034027 12.18108839 32.67131544 25.93420032 16.98046875 47.81640625 C8.10872545 61.36998732 3.28195321 76.04806043 1 92 C0.67 92 0.34 92 0 92 C0 61.64 0 31.28 0 0 Z " fill="#FCFEFD" transform="translate(0,0)"/>
<path d="M0 0 C1.73090172 1.43147411 3.43925433 2.89061446 5.125 4.375 C6.08019531 5.12652344 7.03539062 5.87804688 8.01953125 6.65234375 C14.74889381 12.15818584 14.74889381 12.15818584 16.1875 16.8125 C14.58819594 22.17487244 11.46446415 25.93977417 8.125 30.375 C6.3300419 32.94193031 4.57322801 35.53451425 2.8125 38.125 C-0.75399301 43.33497321 -4.3740887 48.5006969 -8.0625 53.625 C-11.72809002 58.72203786 -15.25645876 63.89197447 -18.71484375 69.1328125 C-23.02352276 75.59972674 -27.46030748 81.98018804 -31.875 88.375 C-35.32701639 86.89778578 -37.52461936 84.93705999 -40.125 82.25 C-40.83140625 81.52554688 -41.5378125 80.80109375 -42.265625 80.0546875 C-42.79671875 79.50039062 -43.3278125 78.94609375 -43.875 78.375 C-42.41714501 74.17113244 -40.32364851 71.00976825 -37.6875 67.4375 C-32.48885507 60.30856883 -27.5256578 53.03099817 -22.57910156 45.72558594 C-19.51513378 41.211496 -16.42837973 36.72075488 -13.24609375 32.2890625 C-12.68647949 31.50893799 -12.12686523 30.72881348 -11.55029297 29.92504883 C-10.49954104 28.46726176 -9.44285011 27.01373136 -8.37939453 25.56518555 C-5.5751652 21.85494176 -5.5751652 21.85494176 -4.875 17.375 C-8.92343197 14.14935046 -8.92343197 14.14935046 -13.875 13.375 C-14.535 14.695 -15.195 16.015 -15.875 17.375 C-17.195 17.375 -18.515 17.375 -19.875 17.375 C-19.3770163 13.64012223 -19.00008244 11.56262365 -16.875 8.375 C-28.72603115 4.28843753 -40.41068005 0.94856863 -52.875 -0.625 C-52.875 2.015 -52.875 4.655 -52.875 7.375 C-54.525 7.375 -56.175 7.375 -57.875 7.375 C-58.205 4.405 -58.535 1.435 -58.875 -1.625 C-56.68926438 -2.27677969 -54.5013177 -2.92114674 -52.3125 -3.5625 C-51.09433594 -3.92214844 -49.87617187 -4.28179688 -48.62109375 -4.65234375 C-33.99072921 -8.45105154 -12.91012671 -9.11516682 0 0 Z " fill="#469790" transform="translate(151.875,21.625)"/>
<path d="M0 0 C0.33 0 0.66 0 1 0 C1.14695313 0.969375 1.29390625 1.93875 1.4453125 2.9375 C5.40790066 27.27385929 17.01782553 51.88320982 37.02929688 67.14282227 C50.92869098 77.09603482 67.00282116 84.51579694 84 87 C84 87.33 84 87.66 84 88 C56.28 88 28.56 88 0 88 C0 58.96 0 29.92 0 0 Z " fill="#FBFDFD" transform="translate(0,112)"/>
<path d="M0 0 C0.33 0 0.66 0 1 0 C1 15.18 1 30.36 1 46 C-30.02 46 -61.04 46 -93 46 C-93 45.67 -93 45.34 -93 45 C-92.030625 44.82984375 -91.06125 44.6596875 -90.0625 44.484375 C-80.94391936 42.84932709 -71.99057552 40.84593075 -63.02636719 38.51611328 C-60.95194741 37.98776106 -58.87233992 37.48828608 -56.7890625 36.99609375 C-39.03054357 32.78059363 -24.17452029 25.73641231 -11.07421875 12.87109375 C-9 11 -9 11 -7 11 C-6.62875 10.1646875 -6.62875 10.1646875 -6.25 9.3125 C-4.78414946 6.6006765 -2.94544301 4.3847366 -1 2 C-0.67 1.34 -0.34 0.68 0 0 Z " fill="#FBFEFD" transform="translate(199,154)"/>
<path d="M0 0 C9.11653275 3.23137377 15.93243199 9.64643871 23 16 C23.96035156 16.86109375 24.92070313 17.7221875 25.91015625 18.609375 C27.57258103 20.10776081 29.22970426 21.61207271 30.87890625 23.125 C32.85052427 24.86786676 34.87115905 26.45526281 37 28 C37.66 26.68 38.32 25.36 39 24 C42.45201639 25.47721422 44.64961936 27.43794001 47.25 30.125 C47.95640625 30.84945312 48.6628125 31.57390625 49.390625 32.3203125 C49.92171875 32.87460938 50.4528125 33.42890625 51 34 C49.38677027 37.55586238 47.24743046 40.54750378 44.9375 43.6875 C43.86822266 45.14736328 43.86822266 45.14736328 42.77734375 46.63671875 C41 49 41 49 40 50 C37.27148438 50.36865234 37.27148438 50.36865234 34 50 C31.33789062 47.95556641 31.33789062 47.95556641 28.65625 45.1015625 C28.16958862 44.59533859 27.68292725 44.08911469 27.18151855 43.56755066 C26.14452934 42.48825495 25.11378768 41.40292727 24.08886719 40.31216431 C21.4409321 37.50041163 18.74002333 34.74131441 16.03125 31.98828125 C15.50539307 31.45347641 14.97953613 30.91867157 14.43774414 30.36766052 C8.81431988 24.70977033 2.81046523 20.16036788 -4 16 C-5.27810547 15.18402344 -5.27810547 15.18402344 -6.58203125 14.3515625 C-8.37557408 13.21450032 -10.1853313 12.10303391 -12 11 C-13 10 -13 10 -13.375 6.6875 C-13 3 -13 3 -11 0.5 C-6.99095843 -1.50452078 -4.16138603 -1.2235061 0 0 Z " fill="#469790" transform="translate(59,89)"/>
<path d="M0 0 C1.98 0.66 3.96 1.32 6 2 C5.55828921 4.92472584 5.07465807 7.74391894 4.24609375 10.5859375 C-2.02365816 32.21203828 2.53691855 54.072735 10.984375 74.3359375 C11.95921019 76.89300519 12.54937973 79.30607446 13 82 C13.66 82 14.32 82 15 82 C17.11459427 84.9893365 19.069386 88.04105919 21.015625 91.140625 C23.22748308 94.57979458 25.37031419 97.46804075 28.390625 100.2421875 C29.25171875 101.15226562 30.1128125 102.06234375 31 103 C30.66308594 105.17236328 30.66308594 105.17236328 30 107 C26.12543722 106.47134636 24.05278268 105.58562441 21.1875 102.9375 C20.50300781 102.30585938 19.81851563 101.67421875 19.11328125 101.0234375 C18.41589844 100.35570312 17.71851562 99.68796875 17 99 C16.31292969 98.35289062 15.62585938 97.70578125 14.91796875 97.0390625 C5.72799539 88.14780721 5.72799539 88.14780721 3 83 C3.33 82.01 3.66 81.02 4 80 C6.5625 78.8125 6.5625 78.8125 9 78 C9 76.68 9 75.36 9 74 C6.03 74.99 3.06 75.98 0 77 C-5.31318002 67.32242211 -9.23147517 56.2773612 -9.0625 45.125 C-9.05347656 44.34382813 -9.04445313 43.56265625 -9.03515625 42.7578125 C-9.02355469 42.17773438 -9.01195312 41.59765625 -9 41 C-6.36 40.67 -3.72 40.34 -1 40 C-1 38.68 -1 37.36 -1 36 C-3.64 36 -6.28 36 -9 36 C-8.74616943 25.9990757 -7.83272157 17.37520741 -4 8 C-3.70480469 7.25492187 -3.40960937 6.50984375 -3.10546875 5.7421875 C-1.26610825 1.26610825 -1.26610825 1.26610825 0 0 Z " fill="#F1FBF8" transform="translate(25,64)"/>
<path d="M0 0 C2.3125 1.0625 2.3125 1.0625 4 3 C4.75 6.6875 4.75 6.6875 5 10 C-7.90095029 21.46751137 -23.84784861 27.92101434 -41 29 C-39.03617993 27.49440461 -37.21736634 26.10868317 -35 25 C-35.33 24.0925 -35.66 23.185 -36 22.25 C-37 19 -37 19 -37 15 C-34.11424181 15.39803561 -33.17810487 15.79009069 -31.25 18.0625 C-30.8375 18.701875 -30.425 19.34125 -30 20 C-26.50049486 19.40897246 -24.71219589 18.13977934 -22.125 15.75 C-19.72021485 13.55529831 -17.31771649 11.43823341 -14.75 9.4375 C-11.86013742 6.87603089 -10.06315742 4.24210452 -8 1 C-5.19084526 -0.40457737 -3.11189466 -0.24895157 0 0 Z " fill="#43978D" transform="translate(169,150)"/>
<path d="M0 0 C5.96926669 1.21620522 10.24498955 3.0103966 15.25 6.4375 C15.848125 6.83259766 16.44625 7.22769531 17.0625 7.63476562 C20.11410582 9.66354339 23.09635144 11.76476559 26 14 C25.25 18.75 25.25 18.75 23 21 C22.28135738 22.7312754 21.56299979 24.46267135 20.84765625 26.1953125 C19.25538519 29.58530895 16.87794025 32.1817075 14.16015625 34.71484375 C11.50098118 37.52789513 9.46409581 40.63509231 7.375 43.875 C3.9944209 49.03373725 0.54384872 54.12132361 -3.0625 59.125 C-6.42104439 63.79513388 -9.76706261 68.47252024 -13.0625 73.1875 C-13.79597656 74.23292969 -14.52945313 75.27835937 -15.28515625 76.35546875 C-17.12063405 78.94385856 -17.12063405 78.94385856 -18 82 C-18.66 82 -19.32 82 -20 82 C-20.226875 82.515625 -20.45375 83.03125 -20.6875 83.5625 C-22.48217618 86.89547005 -24.49965015 90.14703671 -27 93 C-27.66 93 -28.32 93 -29 93 C-27.3925235 88.19615406 -24.70131726 84.41313505 -21.8125 80.3125 C-21.35552734 79.65572266 -20.89855469 78.99894531 -20.42773438 78.32226562 C-18.95707327 76.21112242 -17.47898019 74.10532234 -16 72 C-14.87471656 70.39342766 -13.7497291 68.78664798 -12.625 67.1796875 C-12.03630127 66.33865479 -11.44760254 65.49762207 -10.84106445 64.63110352 C1.8375637 46.56067299 1.8375637 46.56067299 14.16918945 28.25317383 C16.91180072 24.08819928 16.91180072 24.08819928 18 23 C18.50655433 19.67388731 18.50655433 19.67388731 18 16 C15.88674654 13.18196338 15.88674654 13.18196338 12.9375 10.875 C11.93976563 10.02808594 10.94203125 9.18117188 9.9140625 8.30859375 C6.68059545 5.74695966 3.39611906 3.33954869 0 1 C0 0.67 0 0.34 0 0 Z " fill="#CFF0E7" transform="translate(148,19)"/>
<path d="M0 0 C0.66 0 1.32 0 2 0 C2.1959375 0.89976563 2.391875 1.79953125 2.59375 2.7265625 C4.35504902 6.82647522 6.77294162 8.25697355 10.5 10.375 C11.76582988 11.13728177 13.02883348 11.90427519 14.2890625 12.67578125 C14.91458008 13.05814941 15.54009766 13.44051758 16.18457031 13.83447266 C20.38745154 16.53277214 24.19182533 19.77972326 28 23 C27.49396008 25.16874252 27.00016187 26.99967627 26 29 C23.05354008 27.68268423 21.12163996 26.3003931 18.9375 23.9375 C12.34616401 17.14771519 4.78081319 11.36011576 -3 6 C-2.34 5.34 -1.68 4.68 -1 4 C-0.3574765 1.93125966 -0.3574765 1.93125966 0 0 Z " fill="#EFFBF7" transform="translate(70,88)"/>
<path d="M0 0 C5.96926669 1.21620522 10.24498955 3.0103966 15.25 6.4375 C16.1471875 7.03014648 16.1471875 7.03014648 17.0625 7.63476562 C20.11410582 9.66354339 23.09635144 11.76476559 26 14 C25.65986985 19.44208234 22.29703472 22.93668198 19 27 C18.12613055 24.26915797 18.03742372 22.4944919 18.25390625 19.5703125 C18.33223868 15.8912645 18.33223868 15.8912645 15.83984375 13.3046875 C14.88207031 12.50289062 13.92429688 11.70109375 12.9375 10.875 C11.93976563 10.02808594 10.94203125 9.18117188 9.9140625 8.30859375 C6.68059545 5.74695966 3.39611906 3.33954869 0 1 C0 0.67 0 0.34 0 0 Z " fill="#EBFAF4" transform="translate(148,19)"/>
<path d="M0 0 C2.81872737 0.38878998 3.77195598 0.70810365 5.5625 3 C6.036875 3.66 6.51125 4.32 7 5 C7.99 5.33 8.98 5.66 10 6 C10 7.98 10 9.96 10 12 C5.38 12.66 0.76 13.32 -4 14 C0 11 0 11 2 10 C1.505 8.63875 1.505 8.63875 1 7.25 C0 4 0 4 0 0 Z " fill="#5A9D95" transform="translate(132,165)"/>
<path d="M0 0 C1.92585938 0.13535156 1.92585938 0.13535156 3.890625 0.2734375 C7.54406804 0.60624102 11.12547052 1.07099161 14.75 1.625 C14.75 2.285 14.75 2.945 14.75 3.625 C16.07 3.955 17.39 4.285 18.75 4.625 C15.76974834 6.11512583 13.81341059 5.05634978 10.625 4.25 C5.6492928 3.04058837 0.84175367 2.12419154 -4.25 1.625 C-4.25 4.265 -4.25 6.905 -4.25 9.625 C-5.9 9.625 -7.55 9.625 -9.25 9.625 C-9.58 6.655 -9.91 3.685 -10.25 0.625 C-6.56855863 -0.60214712 -3.86768249 -0.28506823 0 0 Z " fill="#649F98" transform="translate(103.25,19.375)"/>
<path d="M0 0 C0 4.04829419 -1.63766879 5.70182378 -3.9375 9 C-6.93989089 13.26325233 -6.93989089 13.26325233 -9 18 C-9.66 18 -10.32 18 -11 18 C-11.226875 18.515625 -11.45375 19.03125 -11.6875 19.5625 C-13.48217618 22.89547005 -15.49965015 26.14703671 -18 29 C-18.66 29 -19.32 29 -20 29 C-18.3762276 24.10002799 -15.57132318 20.23775009 -12.625 16.0625 C-11.65849295 14.67863763 -10.69234143 13.29452687 -9.7265625 11.91015625 C-9.02901855 10.91846436 -9.02901855 10.91846436 -8.31738281 9.90673828 C-7.11587312 8.16771109 -5.97256168 6.40281433 -4.8359375 4.62109375 C-3 2 -3 2 0 0 Z " fill="#D4F4EA" transform="translate(139,83)"/>
<path d="M0 0 C-1.30144802 1.04115841 -2.64612711 2.02798869 -4 3 C-5.5159375 4.1446875 -5.5159375 4.1446875 -7.0625 5.3125 C-11.38351914 7.812653 -15.17751611 6.65742561 -19.83984375 5.578125 C-20.55269531 5.38734375 -21.26554687 5.1965625 -22 5 C-15.22785545 0.48523697 -7.97711521 -0.38598945 0 0 Z " fill="#529B91" transform="translate(84,7)"/>
<path d="M0 0 C0.33 0.66 0.66 1.32 1 2 C-2.12478448 6.29137068 -5.24383935 10.24383935 -9 14 C-10.73300426 16.2923601 -12.36357394 18.63627346 -14 21 C-14.734375 19.33984375 -14.734375 19.33984375 -15 17 C-13.453125 14.37890625 -13.453125 14.37890625 -11.25 11.5625 C-8.59900077 8.13431934 -6.15748507 4.76194391 -4 1 C-3.34 1.66 -2.68 2.32 -2 3 C-1.34 2.01 -0.68 1.02 0 0 Z " fill="#D4F5EC" transform="translate(169,42)"/>
<path d="M0 0 C0.66 0.33 1.32 0.66 2 1 C1.46375 1.61875 0.9275 2.2375 0.375 2.875 C-3.36577175 7.7970681 -7.03562005 13.10686015 -9 19 C-10.32 18.67 -11.64 18.34 -13 18 C-11.75634861 10.78354914 -5.16816112 4.85493923 0 0 Z " fill="#EBFBF7" transform="translate(42,42)"/>
<path d="M0 0 C0.66 0 1.32 0 2 0 C2.165 0.886875 2.33 1.77375 2.5 2.6875 C4.56769081 7.25365053 7.67646142 8.72762856 12 11 C11.01 11.495 11.01 11.495 10 12 C9.34 11.67 8.68 11.34 8 11 C8 11.66 8 12.32 8 13 C3.95579349 11.22054913 0.53921513 8.60470327 -3 6 C-2.34 5.34 -1.68 4.68 -1 4 C-0.3574765 1.93125966 -0.3574765 1.93125966 0 0 Z " fill="#E8FBF3" transform="translate(70,88)"/>
<path d="M0 0 C0 0.99 0 1.98 0 3 C-0.598125 3.268125 -1.19625 3.53625 -1.8125 3.8125 C-4.73959515 5.40149451 -6.5094781 7.01895619 -8 10 C-9.77734375 11.10546875 -9.77734375 11.10546875 -11.9375 12.1875 C-12.64777344 12.55230469 -13.35804687 12.91710938 -14.08984375 13.29296875 C-14.72019531 13.52628906 -15.35054687 13.75960938 -16 14 C-16.66 13.67 -17.32 13.34 -18 13 C-15.75340093 11.20392214 -13.50296211 9.41306517 -11.25 7.625 C-10.29867187 6.86316406 -10.29867187 6.86316406 -9.328125 6.0859375 C-8.709375 5.59609375 -8.090625 5.10625 -7.453125 4.6015625 C-6.88754883 4.15119629 -6.32197266 3.70083008 -5.73925781 3.23681641 C-3.90362964 1.93146936 -2.0363688 0.95576697 0 0 Z " fill="#82D9AF" transform="translate(73,13)"/>
<path d="M0 0 C-2.64738916 1.4606285 -3.89448334 2 -7 2 C-7.2475 2.78375 -7.495 3.5675 -7.75 4.375 C-9.20924503 7.43941457 -10.05014956 7.61725761 -13 9 C-13.33 9.680625 -13.66 10.36125 -14 11.0625 C-14.33 11.701875 -14.66 12.34125 -15 13 C-17.0625 13.62109375 -17.0625 13.62109375 -19 14 C-17.57637507 12.33910425 -16.15241266 10.67851805 -14.7265625 9.01953125 C-13.58944785 7.68946728 -12.45903697 6.35363807 -11.3359375 5.01171875 C-10.81257812 4.38910156 -10.28921875 3.76648438 -9.75 3.125 C-9.27046875 2.55007812 -8.7909375 1.97515625 -8.296875 1.3828125 C-5.54692468 -1.54936344 -3.66947952 -0.86908725 0 0 Z " fill="#A4E3BD" transform="translate(195,145)"/>
<path d="M0 0 C0.33 0.66 0.66 1.32 1 2 C1.66 2.33 2.32 2.66 3 3 C1.8553125 4.1446875 1.8553125 4.1446875 0.6875 5.3125 C-2.36955368 8.93951284 -3.27081829 12.76028768 -4.32421875 17.31640625 C-5.0005053 20.00200661 -5.91808085 22.45403707 -7 25 C-8.05571968 21.79315564 -7.94088264 19.95541555 -6.85546875 16.77734375 C-6.59056641 15.99166016 -6.32566406 15.20597656 -6.05273438 14.39648438 C-5.76720703 13.58501953 -5.48167969 12.77355469 -5.1875 11.9375 C-4.91357422 11.12216797 -4.63964844 10.30683594 -4.35742188 9.46679688 C-3.14935719 5.9411021 -2.08514489 3.12771733 0 0 Z " fill="#95E1B6" transform="translate(36,53)"/>
<path d="M0 0 C0 2 0 4 0 6 C0.66 6.33 1.32 6.66 2 7 C1.67 8.65 1.34 10.3 1 12 C-0.98 11.34 -2.96 10.68 -5 10 C-5 7 -5 7 -4 4 C-3.34 4 -2.68 4 -2 4 C-2 3.01 -2 2.02 -2 1 C-1.34 0.67 -0.68 0.34 0 0 Z " fill="#589F96" transform="translate(30,54)"/>
<path d="M0 0 C0 0.33 0 0.66 0 1 C-1.7015625 1.2165625 -1.7015625 1.2165625 -3.4375 1.4375 C-6.80777201 1.61171478 -6.80777201 1.61171478 -8 3 C-10.07617404 3.3753535 -12.16156111 3.7003137 -14.25 4 C-18.19335938 4.57098416 -22.10046626 5.17904553 -26 6 C-26.33 5.34 -26.66 4.68 -27 4 C-24.18998805 3.32098956 -21.37774339 2.65666828 -18.5625 2 C-17.77939453 1.80921875 -16.99628906 1.6184375 -16.18945312 1.421875 C-10.66662427 0.14912432 -5.66713077 -0.18152971 0 0 Z " fill="#97E0B4" transform="translate(120,0)"/>
<path d="M0 0 C0.33 0.99 0.66 1.98 1 3 C0.28972656 3.62648437 -0.42054688 4.25296875 -1.15234375 4.8984375 C-2.07144531 5.71570313 -2.99054688 6.53296875 -3.9375 7.375 C-5.31228516 8.59316406 -5.31228516 8.59316406 -6.71484375 9.8359375 C-9.03601395 11.78709347 -9.03601395 11.78709347 -10 14 C-12.3140622 14.73075648 -14.64828869 15.40138258 -17 16 C-14.05721495 12.96525291 -11.02568744 10.06934208 -7.875 7.25 C-7.21242187 6.65703125 -6.54984375 6.0640625 -5.8671875 5.453125 C-4 4 -4 4 -1 3 C-0.67 2.01 -0.34 1.02 0 0 Z " fill="#D9F9E5" transform="translate(193,162)"/>
<path d="M0 0 C2.375 2 2.375 2 4 4 C3.01 4 2.02 4 1 4 C0.67 4.99 0.34 5.98 0 7 C-0.66 6.01 -1.32 5.02 -2 4 C-1.67 3.01 -1.34 2.02 -1 1 C-3.94727535 1.10169161 -3.94727535 1.10169161 -7 2 C-8.45291273 4.46255685 -8.45291273 4.46255685 -9 7 C-9.66 7 -10.32 7 -11 7 C-8.48520489 1.39007246 -6.47902516 -0.92557502 0 0 Z " fill="#5F9F99" transform="translate(169,150)"/>
<path d="M0 0 C2.86867231 1.38264837 5.56024032 2.92148553 8.25 4.625 C8.95640625 5.07101563 9.6628125 5.51703125 10.390625 5.9765625 C10.92171875 6.31429687 11.4528125 6.65203125 12 7 C9.44855176 7.93045933 8.25993522 8.08564091 5.640625 7.22265625 C4.85171875 6.83980469 4.0628125 6.45695313 3.25 6.0625 C2.45078125 5.68222656 1.6515625 5.30195313 0.828125 4.91015625 C0.22484375 4.60980469 -0.3784375 4.30945313 -1 4 C-0.67 2.68 -0.34 1.36 0 0 Z " fill="#D8F6EC" transform="translate(60,172)"/>
<path d="M0 0 C0.99 0 1.98 0 3 0 C1.6744419 3.62276315 0.05653045 6.63505348 -2.125 9.8125 C-2.66382813 10.60269531 -3.20265625 11.39289063 -3.7578125 12.20703125 C-4.37269531 13.09455078 -4.37269531 13.09455078 -5 14 C-5.33 13.34 -5.66 12.68 -6 12 C-5.29296875 9.94140625 -5.29296875 9.94140625 -4.1875 7.5625 C-3.83042969 6.78003906 -3.47335938 5.99757813 -3.10546875 5.19140625 C-2 3 -2 3 0 0 Z " fill="#96E0B2" transform="translate(156,82)"/>
<path d="M0 0 C0 0.99 0 1.98 0 3 C-4.29 3.66 -8.58 4.32 -13 5 C-8.34740455 1.51055341 -5.80417556 0 0 0 Z " fill="#4F9C8B" transform="translate(141,174)"/>
<path d="M0 0 C0.66 0.33 1.32 0.66 2 1 C2 2.32 2 3.64 2 5 C3.65 5 5.3 5 7 5 C4 7 4 7 2 7 C1.67 7.99 1.34 8.98 1 10 C-0.98 10.33 -2.96 10.66 -5 11 C-3.7625 9.948125 -3.7625 9.948125 -2.5 8.875 C0.30423396 6.21372773 0.30423396 6.21372773 0.3125 2.6875 C0.209375 1.800625 0.10625 0.91375 0 0 Z " fill="#83D2AF" transform="translate(173,154)"/>
<path d="M0 0 C0.33 0.66 0.66 1.32 1 2 C-0.98 4.64 -2.96 7.28 -5 10 C-5.33 9.34 -5.66 8.68 -6 8 C-6.66 7.67 -7.32 7.34 -8 7 C-6.68 5.02 -5.36 3.04 -4 1 C-3.34 1.66 -2.68 2.32 -2 3 C-1.34 2.01 -0.68 1.02 0 0 Z " fill="#B9E7D4" transform="translate(169,42)"/>
<path d="M0 0 C0.66 0.33 1.32 0.66 2 1 C0.71520959 2.50589388 -0.57804082 4.00457375 -1.875 5.5 C-2.59429687 6.3353125 -3.31359375 7.170625 -4.0546875 8.03125 C-4.69664063 8.6809375 -5.33859375 9.330625 -6 10 C-6.66 10 -7.32 10 -8 10 C-8 10.66 -8 11.32 -8 12 C-8.99 12.33 -9.98 12.66 -11 13 C-11 12.34 -11 11.68 -11 11 C-10.34 11 -9.68 11 -9 11 C-8.61714844 10.12601563 -8.61714844 10.12601563 -8.2265625 9.234375 C-6.88258913 6.78611777 -5.38189704 5.18256752 -3.375 3.25 C-2.74335937 2.63640625 -2.11171875 2.0228125 -1.4609375 1.390625 C-0.73777344 0.70226563 -0.73777344 0.70226563 0 0 Z " fill="#E3FBEB" transform="translate(69,34)"/>
<path d="M0 0 C6.63093294 0.34773428 12.053928 0.96089654 18 4 C14.86184479 5.00869274 13.13824777 4.85433242 10 4 C9.23300781 3.84660156 8.46601563 3.69320313 7.67578125 3.53515625 C6.89589844 3.37917969 6.11601562 3.22320313 5.3125 3.0625 C4.52488281 2.90910156 3.73726562 2.75570313 2.92578125 2.59765625 C1.97251953 2.30181641 1.97251953 2.30181641 1 2 C0.67 1.34 0.34 0.68 0 0 Z " fill="#89DBB4" transform="translate(136,15)"/>
<path d="M0 0 C0 0.33 0 0.66 0 1 C-8.18439225 3.44095909 -15.60246281 2.81873222 -24 2 C-24 1.67 -24 1.34 -24 1 C-15.98866917 0.40891367 -8.03770278 -0.14101233 0 0 Z " fill="#97E3BB" transform="translate(138,192)"/>
<path d="M0 0 C1.67542976 0.28604898 3.34385343 0.61781233 5 1 C3.875 3 3.875 3 2 5 C-1.0625 5.4375 -1.0625 5.4375 -4 5 C-4.66 4.01 -5.32 3.02 -6 2 C-4.7934375 1.7834375 -4.7934375 1.7834375 -3.5625 1.5625 C-1.07896294 1.25864751 -1.07896294 1.25864751 0 0 Z " fill="#549490" transform="translate(97,134)"/>
<path d="M0 0 C1.32 1.32 2.64 2.64 4 4 C3.29875 4.020625 2.5975 4.04125 1.875 4.0625 C-2.3793624 5.44979209 -4.35307139 8.51624172 -7 12 C-7 8.19654123 -5.86213669 7.22298985 -3.5 4.3125 C-2.8503125 3.50425781 -2.200625 2.69601563 -1.53125 1.86328125 C-1.0259375 1.24839844 -0.520625 0.63351563 0 0 Z " fill="#DFF7F1" transform="translate(110,124)"/>
<path d="M0 0 C0 3.5094654 -0.5925541 5.7829808 -2 9 C-4.625 10.875 -4.625 10.875 -7 12 C-5.63855967 6.80177328 -3.53269829 3.90456127 0 0 Z " fill="#E1FAE9" transform="translate(175,60)"/>
<path d="M0 0 C1.18851563 0.00902344 2.37703125 0.01804688 3.6015625 0.02734375 C4.51679687 0.03894531 5.43203125 0.05054688 6.375 0.0625 C6.375 0.3925 6.375 0.7225 6.375 1.0625 C4.81383181 1.40201619 3.25098662 1.73382544 1.6875 2.0625 C0.38232422 2.3409375 0.38232422 2.3409375 -0.94921875 2.625 C-3.56212964 3.05222047 -5.98313038 3.13866201 -8.625 3.0625 C-8.625 2.4025 -8.625 1.7425 -8.625 1.0625 C-5.74084117 -0.37957941 -3.20778472 -0.03144887 0 0 Z " fill="#E6FCED" transform="translate(104.625,-0.0625)"/>
<path d="M0 0 C4.62 0 9.24 0 14 0 C10.99895182 1.50052409 8.90648893 2.38848592 5.75 3.125 C4.5125 3.41375 3.275 3.7025 2 4 C2.33 3.34 2.66 2.68 3 2 C2.01 1.34 1.02 0.68 0 0 Z " fill="#559A8C" transform="translate(115,194)"/>
<path d="M0 0 C3.57967992 1.65215996 6.77982952 3.73124352 10 6 C10 6.33 10 6.66 10 7 C8.02 7 6.04 7 4 7 C3.67 5.68 3.34 4.36 3 3 C2.01 3 1.02 3 0 3 C0 2.01 0 1.02 0 0 Z " fill="#97DFB4" transform="translate(69,160)"/>
<path d="M0 0 C-1.93254772 2.0245738 -3.63158688 3.42105792 -6 5 C-7.32 5 -8.64 5 -10 5 C-10 4.34 -10 3.68 -10 3 C-3.375 -1.125 -3.375 -1.125 0 0 Z " fill="#5A9C96" transform="translate(56,16)"/>
<path d="M0 0 C0 0.99 0 1.98 0 3 C-0.66 3 -1.32 3 -2 3 C-2.2475 3.556875 -2.495 4.11375 -2.75 4.6875 C-4.21606015 7.39971127 -6.02989471 9.63587365 -8 12 C-7.75 9.125 -7.75 9.125 -7 6 C-4.9375 4.625 -4.9375 4.625 -3 4 C-3 3.34 -3 2.68 -3 2 C-2.01 1.34 -1.02 0.68 0 0 Z " fill="#A1E3BB" transform="translate(135,117)"/>
<path d="M0 0 C0.33 0.99 0.66 1.98 1 3 C0.3503125 3.5878125 0.3503125 3.5878125 -0.3125 4.1875 C-2.26366224 6.28319278 -3.59010162 8.51589333 -5 11 C-5.66 10.67 -6.32 10.34 -7 10 C-6.02223933 8.51990357 -5.0427506 7.04094856 -4.0625 5.5625 C-3.51722656 4.73878906 -2.97195312 3.91507812 -2.41015625 3.06640625 C-1 1 -1 1 0 0 Z " fill="#9AE2B6" transform="translate(150,70)"/>
<path d="M0 0 C0.33 0 0.66 0 1 0 C1 2.97 1 5.94 1 9 C0.01 9 -0.98 9 -2 9 C-2.125 5.625 -2.125 5.625 -2 2 C-1.34 1.34 -0.68 0.68 0 0 Z " fill="#48938A" transform="translate(97,20)"/>
<path d="M0 0 C4.29 0 8.58 0 13 0 C13.33 0.99 13.66 1.98 14 3 C9.30976546 2.43393721 4.65499974 1.81462495 0 1 C0 0.67 0 0.34 0 0 Z " fill="#EAFEF2" transform="translate(134,0)"/>
<path d="M0 0 C-4.02167317 2.96837781 -7.00088076 4.52389341 -12 5 C-8.77464852 1.23708994 -4.90542108 -1.63514036 0 0 Z " fill="#86DEB7" transform="translate(165,169)"/>
<path d="M0 0 C0.99 0.33 1.98 0.66 3 1 C2.38125 1.2475 1.7625 1.495 1.125 1.75 C-1.15001528 2.82396211 -1.15001528 2.82396211 -2 5.0625 C-2.33 5.701875 -2.66 6.34125 -3 7 C-5.0625 7.62109375 -5.0625 7.62109375 -7 8 C-6.02133662 6.85373678 -5.04205413 5.70800212 -4.0625 4.5625 C-3.51722656 3.92441406 -2.97195312 3.28632813 -2.41015625 2.62890625 C-1.63204305 1.73008851 -0.84063472 0.84063472 0 0 Z " fill="#9BE2B6" transform="translate(183,151)"/>
<path d="M0 0 C2.16874252 0.50603992 3.99967627 0.99983813 6 2 C6 2.66 6 3.32 6 4 C6.66 4 7.32 4 8 4 C7.67 5.32 7.34 6.64 7 8 C5.83035398 6.8572081 4.66435444 5.71068285 3.5 4.5625 C2.8503125 3.92441406 2.200625 3.28632813 1.53125 2.62890625 C0 1 0 1 0 0 Z " fill="#5A9A93" transform="translate(83,128)"/>
<path d="M0 0 C0.66 0.33 1.32 0.66 2 1 C-0.20979308 3.81939117 -2.40062046 6.53058944 -5 9 C-5.99 8.67 -6.98 8.34 -8 8 C-5.36 5.36 -2.72 2.72 0 0 Z " fill="#BCF0DC" transform="translate(42,42)"/>
<path d="M0 0 C2.9375 1.1875 2.9375 1.1875 3.9375 3.1875 C2.6175 2.8575 1.2975 2.5275 -0.0625 2.1875 C-0.0625 2.8475 -0.0625 3.5075 -0.0625 4.1875 C-3.9375 2.4375 -3.9375 2.4375 -5.0625 0.1875 C-3.0625 -0.8125 -3.0625 -0.8125 0 0 Z " fill="#D9F6EB" transform="translate(78.0625,96.8125)"/>
<path d="M0 0 C0.33 0 0.66 0 1 0 C0.39174965 4.34464536 -0.26167392 8.67551867 -1 13 C-1.33 13 -1.66 13 -2 13 C-2.05447047 11.58376784 -2.09300508 10.16691809 -2.125 8.75 C-2.14820312 7.96109375 -2.17140625 7.1721875 -2.1953125 6.359375 C-1.9828378 3.79268059 -1.28654105 2.2083933 0 0 Z " fill="#8FDEAE" transform="translate(29,76)"/>
<path d="M0 0 C2.475 0.495 2.475 0.495 5 1 C5.33 1.99 5.66 2.98 6 4 C7.49985609 5.66710346 7.49985609 5.66710346 9 7 C8.67 7.66 8.34 8.32 8 9 C6.66368764 7.6905332 5.33102075 6.37734515 4 5.0625 C3.2575 4.33160156 2.515 3.60070312 1.75 2.84765625 C0 1 0 1 0 0 Z " fill="#99E0B3" transform="translate(48,159)"/>
<path d="M0 0 C1.258125 -0.04125 2.51625 -0.0825 3.8125 -0.125 C4.52019531 -0.14820312 5.22789063 -0.17140625 5.95703125 -0.1953125 C8 0 8 0 11 2 C8.36 2.33 5.72 2.66 3 3 C3 2.34 3 1.68 3 1 C1.68 1.33 0.36 1.66 -1 2 C-0.67 1.34 -0.34 0.68 0 0 Z " fill="#9ADFB4" transform="translate(75,83)"/>
<path d="M0 0 C0.66 0.33 1.32 0.66 2 1 C-0.35380297 4.92300495 -2.64464931 5.83857315 -7 7 C-4.78071806 4.09197539 -3.07030857 2.04687238 0 0 Z " fill="#E0FCEC" transform="translate(78,27)"/>
<path d="M0 0 C1.27875 0.28875 2.5575 0.5775 3.875 0.875 C4.95394531 1.11863281 4.95394531 1.11863281 6.0546875 1.3671875 C8 2 8 2 10 4 C7.8125 4.8125 7.8125 4.8125 5 5 C2.1875 2.5625 2.1875 2.5625 0 0 Z " fill="#C5F0DE" transform="translate(148,19)"/>
<path d="M0 0 C0.33 0.99 0.66 1.98 1 3 C4.51190809 4.22969878 4.51190809 4.22969878 8 5 C5.66682784 5.77772405 3.38564077 6.42415568 1 7 C0.67 4.69 0.34 2.38 0 0 Z " fill="#5B9E98" transform="translate(58,173)"/>
<path d="M0 0 C0.66 0.33 1.32 0.66 2 1 C0.10595266 4.34243648 -0.94091591 4.97997149 -4.6875 6.25 C-6.3271875 6.62125 -6.3271875 6.62125 -8 7 C-5.42215154 4.35247996 -3.08351902 2.05567935 0 0 Z " fill="#E6FBEE" transform="translate(184,171)"/>
<path d="M0 0 C0.66 0 1.32 0 2 0 C2.33 0.99 2.66 1.98 3 3 C4.49985609 4.66710346 4.49985609 4.66710346 6 6 C5.67 6.99 5.34 7.98 5 9 C1.9083091 6.47043472 1.09068668 3.77545388 0 0 Z " fill="#93E2B5" transform="translate(33,133)"/>
<path d="M0 0 C0.99 0.66 1.98 1.32 3 2 C2.67 2.66 2.34 3.32 2 4 C-4.15234375 3.4140625 -4.15234375 3.4140625 -6 3 C-6.33 2.34 -6.66 1.68 -7 1 C-4.69 1.33 -2.38 1.66 0 2 C0 1.34 0 0.68 0 0 Z " fill="#98DEB4" transform="translate(123,129)"/>
<path d="M0 0 C0.33 0.66 0.66 1.32 1 2 C0.00390625 3.9453125 0.00390625 3.9453125 -1.4375 6.125 C-1.91058594 6.84945312 -2.38367188 7.57390625 -2.87109375 8.3203125 C-3.24363281 8.87460938 -3.61617188 9.42890625 -4 10 C-4.66 9.34 -5.32 8.68 -6 8 C-4.02 5.36 -2.04 2.72 0 0 Z " fill="#9AE1B5" transform="translate(126,104)"/>
<path d="M0 0 C2.02045442 0.60183749 4.02111039 1.27306096 6 2 C6.33 2.66 6.66 3.32 7 4 C5.02 4.33 3.04 4.66 1 5 C1.33 4.01 1.66 3.02 2 2 C1.34 2 0.68 2 0 2 C0 1.34 0 0.68 0 0 Z " fill="#91DFAF" transform="translate(89,87)"/>
<path d="M0 0 C0.33 0.66 0.66 1.32 1 2 C1.66 2.33 2.32 2.66 3 3 C1.71034824 4.37562854 0.37310707 5.70766393 -1 7 C-1.66 7 -2.32 7 -3 7 C-1.125 1.125 -1.125 1.125 0 0 Z " fill="#9FE6BB" transform="translate(36,53)"/>
<path d="M0 0 C0 0.66 0 1.32 0 2 C1.98 2 3.96 2 6 2 C6 2.33 6 2.66 6 3 C1.1666528 3.08333357 -3.23692563 2.95261487 -8 2 C-8 1.67 -8 1.34 -8 1 C-2.25 0 -2.25 0 0 0 Z " fill="#6DB1AA" transform="translate(86,197)"/>
<path d="M0 0 C2.475 0.99 2.475 0.99 5 2 C4.67 2.66 4.34 3.32 4 4 C4.66 4.33 5.32 4.66 6 5 C5.67 5.66 5.34 6.32 5 7 C2.5 5.1875 2.5 5.1875 0 3 C0 2.01 0 1.02 0 0 Z " fill="#65A39D" transform="translate(31,172)"/>
<path d="M0 0 C2 1 4 2 6 3 C6 3.66 6 4.32 6 5 C5.01 5 4.02 5 3 5 C2.67 5.66 2.34 6.32 2 7 C2 6.01 2 5.02 2 4 C1.01 3.67 0.02 3.34 -1 3 C-0.67 2.01 -0.34 1.02 0 0 Z " fill="#87D9B0" transform="translate(57,166)"/>
<path d="M0 0 C0 3 0 3 -2.5 5.6875 C-3.325 6.450625 -4.15 7.21375 -5 8 C-5.66 7.67 -6.32 7.34 -7 7 C-4.69 4.69 -2.38 2.38 0 0 Z " fill="#71A8A2" transform="translate(154,159)"/>
<path d="M0 0 C1 3 1 3 0.3125 5.0625 C-1.21259665 7.31383315 -2.50584728 8.00233891 -5 9 C-3.7508258 5.54074837 -2.32472205 2.85306797 0 0 Z " fill="#629E98" transform="translate(19,44)"/>
<path d="M0 0 C4.75 0.875 4.75 0.875 7 2 C6.34 3.32 5.68 4.64 5 6 C3.35 4.02 1.7 2.04 0 0 Z " fill="#5EA098" transform="translate(143,35)"/>
<path d="M0 0 C-2.64 1.65 -5.28 3.3 -8 5 C-7.67 3.35 -7.34 1.7 -7 0 C-4 -1 -4 -1 0 0 Z " fill="#96DCAF" transform="translate(80,27)"/>
<path d="M0 0 C0.66 0.33 1.32 0.66 2 1 C1.34 1.66 0.68 2.32 0 3 C-0.99 3 -1.98 3 -3 3 C-3.33 3.99 -3.66 4.98 -4 6 C-5.32 5.34 -6.64 4.68 -8 4 C-6.71349294 3.30289269 -5.42059335 2.61757124 -4.125 1.9375 C-3.40570313 1.55464844 -2.68640625 1.17179688 -1.9453125 0.77734375 C-1.30335937 0.52082031 -0.66140625 0.26429687 0 0 Z " fill="#82D9B0" transform="translate(82,8)"/>
<path d="M0 0 C2.75 -0.25 2.75 -0.25 6 0 C8.375 2 8.375 2 10 4 C6.7 3.01 3.4 2.02 0 1 C0 0.67 0 0.34 0 0 Z " fill="#639F98" transform="translate(59,192)"/>
<path d="M0 0 C0.66 0.33 1.32 0.66 2 1 C1.49396008 3.16874252 1.00016187 4.99967627 0 7 C-0.99 6.67 -1.98 6.34 -3 6 C-3 5.34 -3 4.68 -3 4 C-2.34 3.67 -1.68 3.34 -1 3 C-0.67 2.01 -0.34 1.02 0 0 Z " fill="#D9F4EF" transform="translate(96,110)"/>
<path d="M0 0 C0.33 0 0.66 0 1 0 C1.625 3.375 1.625 3.375 2 7 C1.34 7.66 0.68 8.32 0 9 C-1 8 -1 8 -1.125 4.5 C-1 1 -1 1 0 0 Z " fill="#76ACA3" transform="translate(47,91)"/>
</svg>
